<svg width="20" height="19" viewBox="0 0 20 19" fill="none" xmlns="http://www.w3.org/2000/svg">
<path opacity="0.6" fill-rule="evenodd" clip-rule="evenodd" d="M19 1.70833V17.2917C19 17.5732 18.5549 17.9936 18.25 18H13.75V11.625H16V8.79167H13.75V7.375C13.4226 6.46497 13.6384 5.96178 14.5 5.95833H16V3.83333C15.9584 3.63694 15.1087 3.56688 13.75 3.83333C12.0333 3.56688 10.6171 4.76433 10.75 6.66667V8.79167H8.5V11.625H10.75V18H1.75C1.44511 18 1 17.5796 1 17.2917V1.70833C1 1.42038 1.44511 1 1.75 1H18.25C18.5549 1 19 1.41401 19 1.70833Z" fill="#4267B2" stroke="black"/>
</svg>
